<svg xmlns="http://www.w3.org/2000/svg" xmlns:xlink="http://www.w3.org/1999/xlink" version="1.1" id="Layer_1" x="0px" y="0px" viewBox="0 0 72 45" enable-background="new 0 0 72 45" xml:space="preserve"><g id="diners_club_3_"><g><linearGradient id="SVGID_1_" gradientUnits="userSpaceOnUse" x1="36" y1="0.15" x2="36" y2="44.5342"><stop offset="0" style="stop-color:#FFFFFF"/><stop offset="1" style="stop-color:#CCCCCC"/></linearGradient><path fill="url(#SVGID_1_)" d="M72,40.5c0,2.475-2.025,4.5-4.5,4.5h-63C2.025,45,0,42.975,0,40.5v-36C0,2.025,2.025,0,4.5,0h63    C69.975,0,72,2.025,72,4.5V40.5z"/><g><path fill="#999999" d="M67.5,0.15c2.399,0,4.35,1.951,4.35,4.35v36c0,2.399-1.951,4.35-4.35,4.35h-63     c-2.399,0-4.35-1.951-4.35-4.35v-36c0-2.399,1.951-4.35,4.35-4.35H67.5 M67.5,0h-63C2.025,0,0,2.025,0,4.5v36     C0,42.975,2.025,45,4.5,45h63c2.475,0,4.5-2.025,4.5-4.5v-36C72,2.025,69.975,0,67.5,0L67.5,0z"/></g></g><g><path fill="#FF7404" d="M11.014,17.371c1.564,0.038,2.741,0.477,3.533,1.316c0.791,0.84,1.187,2.113,1.187,3.82    c0,1.708-0.396,2.981-1.187,3.82c-0.791,0.84-1.969,1.278-3.533,1.317H7.46V17.371H11.014z M10.525,26.809    c0.738,0,1.374-0.079,1.906-0.237c0.532-0.158,0.971-0.41,1.317-0.755c0.345-0.345,0.599-0.791,0.763-1.338    c0.163-0.547,0.244-1.204,0.244-1.971c0-0.767-0.081-1.424-0.244-1.971c-0.163-0.547-0.417-0.993-0.763-1.338    c-0.345-0.345-0.784-0.597-1.317-0.755c-0.533-0.158-1.168-0.238-1.906-0.238H8.438v8.604H10.525z"/><path fill="#FF7404" d="M17.259,17.371l2.331,8.993h0.029l2.504-8.993h1.223l2.518,8.993h0.029l2.345-8.993h0.978l-2.834,10.273    h-1.036l-2.604-9.194h-0.029l-2.59,9.194h-1.065l-2.849-10.273H17.259z"/><path fill="#FF7404" d="M29.979,20.479c0.201-0.642,0.503-1.211,0.906-1.705c0.403-0.494,0.909-0.887,1.518-1.18    c0.609-0.292,1.316-0.439,2.122-0.439s1.511,0.146,2.115,0.439c0.604,0.293,1.108,0.686,1.511,1.18    c0.403,0.494,0.705,1.063,0.907,1.705c0.201,0.643,0.302,1.319,0.302,2.029c0,0.71-0.101,1.387-0.302,2.029    c-0.202,0.643-0.504,1.208-0.907,1.698c-0.403,0.489-0.906,0.88-1.511,1.173c-0.604,0.293-1.309,0.439-2.115,0.439    s-1.513-0.146-2.122-0.439c-0.609-0.292-1.115-0.683-1.518-1.173c-0.403-0.489-0.705-1.055-0.906-1.698    c-0.202-0.642-0.302-1.319-0.302-2.029C29.677,21.798,29.777,21.121,29.979,20.479z M30.878,24.155    c0.149,0.542,0.379,1.027,0.691,1.453c0.312,0.427,0.712,0.77,1.201,1.029c0.489,0.259,1.074,0.388,1.755,0.388    c0.681,0,1.264-0.13,1.748-0.388c0.484-0.259,0.882-0.602,1.194-1.029c0.312-0.427,0.542-0.911,0.691-1.453    c0.149-0.542,0.223-1.091,0.223-1.647c0-0.566-0.074-1.117-0.223-1.654c-0.149-0.537-0.379-1.019-0.691-1.446    c-0.311-0.426-0.71-0.77-1.194-1.029c-0.484-0.259-1.067-0.388-1.748-0.388c-0.681,0-1.266,0.129-1.755,0.388    c-0.489,0.259-0.89,0.602-1.201,1.029c-0.312,0.427-0.542,0.909-0.691,1.446c-0.149,0.537-0.223,1.089-0.223,1.654    C30.655,23.064,30.729,23.613,30.878,24.155z"/><path fill="#FF7404" d="M41.791,17.371v9.439h5.755v0.835h-6.734V17.371H41.791z"/><path fill="#FF7404" d="M49.734,17.371v9.439h5.755v0.835h-6.734V17.371H49.734z"/><path fill="#FF7404" d="M60.512,17.371l4.028,10.273h-1.05l-1.252-3.194h-4.676l-1.237,3.194h-1.036l4.129-10.273H60.512z     M61.907,23.615l-1.986-5.266l-2.058,5.266H61.907z"/></g></g></svg>