<?xml version="1.0" encoding="utf-8"?>
<!-- Generator: Adobe Illustrator 14.0.0, SVG Export Plug-In . SVG Version: 6.00 Build 43363)  -->
<!DOCTYPE svg PUBLIC "-//W3C//DTD SVG 1.1//EN" "http://www.w3.org/Graphics/SVG/1.1/DTD/svg11.dtd">
<svg version="1.1" id="Layer_1" xmlns="http://www.w3.org/2000/svg" xmlns:xlink="http://www.w3.org/1999/xlink" x="0px" y="0px"
	 width="190px" height="46px" viewBox="0 0 190 46" enable-background="new 0 0 190 46" xml:space="preserve">
<g>
	<g>
		<path fill="#231F20" d="M72.116,12.158c0-0.85-0.691-1.542-1.542-1.542H56.136c-0.85,0-1.542,0.691-1.542,1.542
			c0,0.858,0.691,1.557,1.542,1.557h5.678v17.487c0,0.858,0.691,1.557,1.541,1.557s1.542-0.698,1.542-1.557V13.715h5.678
			C71.425,13.715,72.116,13.016,72.116,12.158z"/>
		<path fill="#231F20" d="M75.774,16.373c-4.516,0-7.921,3.592-7.921,8.355c0,4.703,3.405,8.248,7.921,8.248
			c4.524,0,7.937-3.594,7.937-8.356C83.711,19.918,80.299,16.373,75.774,16.373z M75.774,29.878c-2.803,0-4.837-2.165-4.837-5.147
			c0-3.046,2.035-5.257,4.837-5.257c2.803,0,4.837,2.166,4.837,5.149C80.612,27.667,78.578,29.878,75.774,29.878z"/>
		<path fill="#231F20" d="M97.663,16.742c-0.19-0.078-0.39-0.118-0.595-0.118c-0.631,0-1.192,0.374-1.428,0.95l-4.183,10.063
			l-4.18-10.03c-0.237-0.578-0.798-0.952-1.429-0.952c-0.205,0-0.405,0.04-0.595,0.118c-0.786,0.322-1.16,1.23-0.833,2.026
			l5.372,12.869l-0.425,1.014c-0.787,1.896-1.936,2.662-4.104,2.735c-0.854,0.041-1.517,0.761-1.478,1.604
			c0.039,0.852,0.708,1.494,1.557,1.494h0.039c3.289-0.063,5.591-1.625,6.844-4.641l6.271-15.109
			C98.823,17.973,98.449,17.064,97.663,16.742z M85.344,38.154L85.344,38.154v0.002V38.154z"/>
		<path fill="#231F20" d="M112.934,21.1c1.226-1.236,1.944-2.907,1.944-4.554c0-3.214-2.759-5.929-6.022-5.929h-6.736
			c-0.864,0-1.542,0.677-1.542,1.542v19.044c0,0.85,0.696,1.542,1.557,1.542h6.784c3.771,0,6.723-2.843,6.723-6.474
			C115.641,24.2,114.637,22.3,112.934,21.1z M108.917,29.66h-5.242v-6.734h5.148c1.835,0,3.733,1.25,3.733,3.344
			C112.557,28.171,110.959,29.66,108.917,29.66z M108.824,19.843h-5.164v-6.144h5.195c1.557,0,2.924,1.33,2.924,2.846
			C111.779,18.148,110.26,19.843,108.824,19.843z"/>
		<path fill="#231F20" d="M130.125,16.622c-0.85,0-1.541,0.691-1.541,1.542v9.859c-0.425,0.424-2.02,1.854-4.23,1.854
			c-2.217,0-3.203-1.055-3.203-3.421v-8.293c0-0.85-0.69-1.542-1.543-1.542c-0.851,0-1.541,0.691-1.541,1.542v8.293
			c0,4.083,2.352,6.521,6.287,6.521c1.485,0,2.938-0.426,4.317-1.266c0.211,0.602,0.783,1.031,1.454,1.031
			c0.852,0,1.542-0.691,1.542-1.542V18.164C131.667,17.313,130.977,16.622,130.125,16.622z"/>
		<path fill="#231F20" d="M136.613,16.622c-0.85,0-1.54,0.691-1.54,1.542v13.038c0,0.85,0.69,1.542,1.54,1.542
			c0.852,0,1.543-0.691,1.543-1.542V18.164C138.156,17.313,137.465,16.622,136.613,16.622z"/>
		<path fill="#231F20" d="M136.913,8.161c-0.535,0-1.039,0.232-1.379,0.635l-0.591,0.683c-0.313,0.359-0.467,0.82-0.43,1.298
			c0.035,0.482,0.271,0.938,0.639,1.25c0.33,0.278,0.746,0.431,1.174,0.431c0.523,0,1.021-0.228,1.369-0.626l0.59-0.684
			c0.65-0.746,0.559-1.895-0.21-2.564C137.752,8.312,137.339,8.161,136.913,8.161z"/>
		<path fill="#231F20" d="M143.229,10.492c-0.851,0-1.541,0.691-1.541,1.542v19.168c0,0.85,0.69,1.542,1.541,1.542
			c0.852,0,1.541-0.691,1.541-1.542V12.033C144.77,11.183,144.078,10.492,143.229,10.492z"/>
		<path fill="#231F20" d="M159.77,10.476c-0.852,0-1.543,0.692-1.543,1.542v4.966c-1.015-0.321-2.268-0.642-3.219-0.642
			c-4.626,0-7.734,3.339-7.734,8.311c0,4.979,3.108,8.324,7.734,8.324c0.852,0,2.025-0.252,3.581-0.771
			c0.292,0.339,0.722,0.54,1.181,0.54c0.851,0,1.541-0.69,1.541-1.542V12.018C161.311,11.168,160.618,10.476,159.77,10.476z
			 M155.008,19.44c0.684,0,2.145,0.382,3.219,0.764v8.897c-1.06,0.391-2.526,0.775-3.219,0.775c-2.956,0-4.65-1.904-4.65-5.229
			C150.355,21.34,152.052,19.44,155.008,19.44z"/>
		<path fill="#231F20" d="M171.081,16.373c-4.812,0-7.329,3.813-7.329,7.578v1.214c0,4.672,3.083,7.812,7.671,7.812
			c1.347,0,2.784-0.27,3.947-0.742c0.366-0.146,0.651-0.43,0.801-0.795s0.146-0.771-0.012-1.135
			c-0.226-0.553-0.747-0.896-1.365-0.896c-0.192,0-0.385,0.034-0.573,0.104c-0.875,0.334-1.816,0.504-2.798,0.504
			c-2.51,0-4.172-1.341-4.61-3.694l9.873-0.613c0.775-0.041,1.383-0.683,1.383-1.463C178.068,19.39,175.391,16.373,171.081,16.373z
			 M171.081,19.332c2.262,0,3.552,1.158,3.933,3.538l-8.271,0.511C166.96,21.355,168.193,19.332,171.081,19.332z"/>
		<path fill="#231F20" d="M189.027,17.074c-0.199-0.114-1.27-0.685-2.65-0.685c-1.118,0-2.592,0.501-3.527,0.872
			c-0.283-0.392-0.748-0.638-1.25-0.638c-0.85,0-1.541,0.691-1.541,1.542v13.038c0,0.85,0.691,1.542,1.541,1.542
			c0.853,0,1.543-0.69,1.543-1.542V20.406c1.094-0.465,2.571-0.934,3.234-0.934c0.588,0,1.076,0.261,1.076,0.261
			c0.244,0.145,0.52,0.222,0.797,0.222c0.547,0,1.044-0.287,1.331-0.77C190.01,18.449,189.764,17.503,189.027,17.074z"/>
	</g>
	<path fill="#231F20" d="M152.6,45.27h-4.466c-0.325,0-0.591-0.225-0.591-0.502v-8.1c0-0.277,0.266-0.51,0.591-0.51
		c0.327,0,0.593,0.232,0.593,0.51v7.596h3.873c0.327,0,0.592,0.227,0.592,0.504C153.189,45.045,152.927,45.27,152.6,45.27
		L152.6,45.27z"/>
	<path fill="#231F20" d="M161.764,41.926l-1.875-3.906l-1.813,3.906H161.764L161.764,41.926z M164.314,44.575
		c0.123,0.258-0.024,0.556-0.328,0.663c-0.303,0.104-0.646-0.021-0.771-0.278l-0.972-2.021h-4.638l-0.935,2.014
		c-0.116,0.258-0.467,0.384-0.771,0.285c-0.303-0.1-0.451-0.397-0.334-0.656l3.757-8.105c0.086-0.19,0.304-0.316,0.553-0.316
		c0.241,0,0.459,0.126,0.552,0.313L164.314,44.575L164.314,44.575z"/>
	<path fill="#231F20" d="M171.773,41.092h-2.754v3.172h2.799c1.121,0,2-0.701,2-1.596C173.818,41.682,172.775,41.092,171.773,41.092
		L171.773,41.092z M171.789,37.165h-2.777v2.92h2.762c0.824,0,1.656-0.788,1.656-1.556C173.43,37.8,172.667,37.165,171.789,37.165
		L171.789,37.165z M171.818,45.27h-3.393c-0.335,0-0.6-0.225-0.6-0.502v-8.104c0-0.285,0.258-0.503,0.592-0.503h3.369
		c1.531,0,2.831,1.086,2.831,2.37c0,0.762-0.437,1.478-1.081,1.961c0.887,0.457,1.462,1.251,1.462,2.178
		C175.001,44.125,173.602,45.27,171.818,45.27L171.818,45.27z"/>
	<path fill="#231F20" d="M181.628,45.363c-0.763,0-1.866-0.094-2.591-0.299c-0.313-0.086-0.475-0.371-0.373-0.635
		c0.102-0.267,0.443-0.412,0.755-0.326c0.599,0.172,1.563,0.252,2.209,0.252c0.763,0,2.038-0.198,2.038-1.502
		c0-0.795-0.335-0.987-1.198-1.307l-2.046-0.749c-1.012-0.371-1.914-0.813-1.914-2.229c0-1.523,1.262-2.51,3.221-2.51
		c0.765,0,1.86,0.092,2.592,0.297c0.305,0.086,0.476,0.371,0.373,0.637c-0.102,0.265-0.449,0.41-0.754,0.324
		c-0.606-0.172-1.563-0.252-2.211-0.252c-0.762,0-2.037,0.199-2.037,1.502c0,0.795,0.326,0.988,1.197,1.306l2.055,0.748
		c0.996,0.364,1.906,0.813,1.906,2.231C184.85,44.376,183.589,45.363,181.628,45.363L181.628,45.363z"/>
</g>
<path fill="#BE1E2D" d="M18,0C18,0,0,1.811,0,21c0,16.827,17,20,17,20h10c0,0-17-2.139-17-20C10,1.22,29,0,29,0H18z"/>
<path fill="#1C75BC" d="M30,0c0,0-18,1.811-18,21c0,16.827,17,20,17,20h10c0,0-17-2.139-17-20C22,1.22,41,0,41,0H30z"/>
<path fill="#39B54A" d="M42,0c0,0-18,1.811-18,21c0,16.827,17,20,17,20h10c0,0-17-2.139-17-20C34,1.22,53,0,53,0H42z"/>
<path fill="#FFD41C" d="M54,0c0,0-18,1.811-18,21c0,16.827,17,20,17,20h10c0,0-17-2.139-17-20C46,1.22,65,0,65,0H54z"/>
</svg>
