<svg xmlns="http://www.w3.org/2000/svg" width="200.4" height="50" viewBox="-351.2 565.6 200.4 50"><path d="M-322.3 565.6l-28.9 50h57.7M-273.6 597.9c.1 0 .2 0 .4.1.1.1.1.2.1.4v3.3c0 .1 0 .2-.1.4-.1.1-.2.1-.4.1h-10.9c-.4 0-.4-.1-.4-.4v-16.7c0-.4.1-.4.4-.4h3.5c.4 0 .4.1.4.4v12.4c0 .1 0 .2.1.4.1.1.2.1.4.1h6.4M-253.4 584.6c.1.1.1.2.1.4V599.2c0 .1-.1.2-.1.4l-2.3 2.3c-.1.1-.2.1-.4.1h-8.8c-.1 0-.4-.1-.4-.1l-2.3-2.3c-.1-.1-.1-.2-.1-.4V585c0-.1 0-.2.1-.4.1-.1.2-.1.4-.1h3.5c.1 0 .2 0 .4.1.1.1.1.2.1.4v12.4c0 .1 0 .2.1.4.1.1.2.1.4.1h5c.1 0 .2 0 .4-.1.1-.1.1-.2.1-.4V585c0-.1 0-.2.1-.4.1-.1.2-.1.4-.1h3.5c-.4.1-.4.1-.2.1M-235.4 597.9c.1 0 .2 0 .4.1.1.1.1.2.1.4v3.3c0 .1 0 .2-.1.4-.1.1-.2.1-.4.1h-10.9c-.4 0-.4-.1-.4-.4v-16.7c0-.4.1-.4.4-.4h3.5c.4 0 .4.1.4.4v12.4c0 .1 0 .2.1.4.1.1.2.1.4.1h6.4M-216.5 588.2c0 .1 0 .2-.1.4-.1.1-.1.2-.2.4l-8.2 9.3h8.1c.1 0 .2 0 .4.1.1.1.1.2.1.4v3.1c0 .1 0 .2-.1.4-.1.1-.2.1-.4.1h-12.5c-.4 0-.4-.1-.4-.4v-3.3c0-.1 0-.2.1-.4 0-.1.1-.2.2-.4l8.3-9.3h-8.1c-.1 0-.2 0-.4-.1-.1-.1-.1-.2-.1-.4V585c0-.1 0-.2.1-.4.1-.1.2-.1.4-.1h12.4c.1 0 .2 0 .4.1.1.1.1.2.1.4v3.2M-195.4 587.1c0 .1.1.2.1.4s.1.4.1.4v2.8c0 .1 0 .2-.1.4 0 .1-.1.2-.2.4l-1 1.4c-.1.1-.1.2-.1.4 0 .1 0 .2.1.4l1 1.3c.1.1.1.2.2.4.1.1.1.4.1.4v2.9c0 .1 0 .2-.1.4 0 .1-.1.4-.1.4l-2.3 2.3c-.1.1-.2.1-.4.1h-11.3c-.4 0-.4-.1-.4-.4V585c0-.1 0-.2.1-.4.1-.1.2-.1.4-.1h10.9c.1 0 .2 0 .4.1.2 0 .4.1.4.1l2.2 2.4m-10.6 4.5h6.8v-3.2h-6.8v3.2zm0 6.8h6.8V595h-6.8v3.4zM-174.2 587.1c0 .1.1.2.1.4 0 .1.1.4.1.4v10.9c0 .1 0 .2-.1.4 0 .1-.1.4-.1.4l-2.3 2.3c-.1.1-.2.1-.4.1h-8.8c-.1 0-.4-.1-.4-.1l-2.3-2.3c-.1-.1-.1-.2-.1-.4V588v-.4c0-.1.1-.4.1-.4l2.3-2.3c.1 0 .2-.1.4-.1.1 0 .4-.1.4-.1h8c.1 0 .2 0 .4.1.2 0 .4.1.4.1l2.3 2.2m-10.2 10.8h6v-9.1h-6v9.1zM-155.4 588.4c0 .1 0 .2-.1.4-.1.1-.2.1-.4.1h-3.7c-.1 0-.2 0-.4.1-.1.1-.1.2-.1.4v12.4c0 .1 0 .2-.1.4-.1.1-.2.1-.4.1h-3.5c-.1 0-.2 0-.4-.1-.1-.1-.1-.2-.1-.4v-12.4c0-.1 0-.2-.1-.4-.1-.1-.2-.1-.4-.1h-3.7c-.1 0-.2 0-.4-.1-.1-.1-.1-.2-.1-.4v-3.3c0-.4.1-.4.4-.4h12.5c.1 0 .2 0 .4.1.1.1.1.2.1.4v3.3"/><path fill="#C1D82F" d="M-322.3 568.4l6.8 11.8h-13.7M-348.7 614.1l6.8-11.8 6.8 11.8M-333.5 614.1l-7.6-13.2 11.1-19.2h15.3l11.1 19.1-7.7 13.3M-309.6 614.1l6.8-11.8 6.8 11.8"/><path d="M-322 612.5c-.1.1-.2.1-.3.1-.1 0-.2-.1-.3-.1-.1-.1-.1-.3-.3-.6-.1-.3-.3-.6-.4-.7-.2-.2-.4-.3-.7-.4-.3-.1-.4 0-.7.1-.3.1-.4.4-.7.7-.1.2-.3.4-.4.4-.1.1-.2.1-.3.1-.1 0-.1-.1-.3-.1-.1-.1-.1-.3-.1-.7-.1-.3-.1-.6-.2-.8-.1-.3-.3-.4-.6-.5-.3-.1-.4-.1-.7-.1s-.5.3-.8.4c-.2.1-.4.4-.5.4-.1 0-.2 0-.3-.1l-.2-.2c-.1-.1 0-.4.1-.7.1-.3.1-.7 0-.9-.1-.3-.2-.4-.4-.7-.2-.1-.4-.2-.7-.2s-.6.1-.8.3c-.3.1-.5.3-.7.3-.1 0-.2-.1-.3-.1-.1-.1-.1-.1-.1-.3 0-.1.1-.3.3-.7.1-.3.3-.6.3-.8s-.1-.5-.2-.7c-.1-.2-.4-.3-.7-.4-.3-.1-.6-.1-.9 0-.3.1-.5.1-.7.1l-.2-.2c-.1-.1-.1-.2-.1-.3 0-.1.2-.3.4-.5s.4-.4.4-.8c.1-.3.1-.5-.1-.7-.1-.2-.3-.4-.5-.6-.3-.1-.6-.2-.8-.2-.3-.1-.5-.1-.7-.1-.1-.1-.1-.1-.1-.3 0-.1 0-.2.1-.3.1-.1.3-.2.4-.4.2-.1.4-.4.7-.7.1-.3.2-.4.1-.7-.1-.3-.1-.4-.3-.7-.2-.2-.4-.3-.7-.4-.3-.1-.4-.2-.6-.3-.1-.1-.1-.1-.1-.3 0-.1.1-.2.1-.3.1-.1.3-.1.6-.3.3-.1.6-.3.7-.4.2-.2.3-.4.3-.7.1-.3 0-.4-.1-.7-.1-.3-.4-.4-.7-.7-.2-.1-.4-.3-.4-.4-.1-.1-.1-.2-.1-.3s.1-.1.1-.3c.1-.1.3-.1.7-.1.4 0 .6-.1.8-.2.3-.1.4-.3.5-.6.1-.2.1-.4.1-.7 0-.3-.3-.5-.4-.8-.1-.2-.4-.4-.4-.5s0-.2.1-.3l.2-.2c.1-.1.4 0 .7.1.3.1.7.1.9 0 .3-.1.4-.2.7-.4.1-.2.2-.4.2-.7 0-.3-.1-.6-.3-.8-.1-.3-.3-.5-.3-.7 0-.1.1-.2.1-.3.1-.1.1-.1.3-.1.1 0 .3.1.7.3.3.1.6.3.8.3s.5-.1.7-.2c.2-.1.3-.4.4-.7.1-.3.1-.6 0-.9-.1-.3-.1-.5-.1-.7l.2-.2c.1-.1.2-.1.3-.1.1 0 .3.2.5.4.2.1.4.4.8.4.3.1.5.1.7-.1.2-.1.4-.3.6-.5.1-.3.2-.6.2-.8.1-.3.1-.5.1-.7.1-.1.1-.1.3-.1.1 0 .2 0 .3.1.1.1.2.3.4.4.1.2.4.4.7.7.3.2.4.2.7.1.3-.1.4-.1.7-.3.2-.2.3-.4.4-.7.1-.3.2-.4.3-.6.1-.1.1-.1.3-.1.1 0 .2.1.3.1.1.1.1.3.3.6.1.3.3.6.4.7.2.2.4.3.7.3.3.1.4 0 .7-.1s.4-.4.7-.7c.1-.2.3-.4.4-.4s.2-.1.3-.1c.1 0 .1.1.3.1.1.1.1.3.1.7.1.3.1.6.2.8.1.3.3.4.6.5.2.1.4.1.7.1s.5-.3.8-.4c.2-.1.4-.4.5-.4.1 0 .2 0 .3.1l.2.2c.1.1 0 .4-.1.7-.1.3-.1.7 0 .9.1.2.2.4.4.7.2.1.4.2.7.2s.6-.1.8-.3c.3-.1.5-.3.7-.3.1 0 .2.1.3.1.1.1.1.1.1.3 0 .1-.1.3-.3.7-.1.3-.3.6-.3.8s.1.5.2.7c.1.2.4.3.7.4.3.1.6.1.9 0 .3-.1.5-.1.7-.1l.2.2c.1.1.1.2.1.3s-.2.3-.4.5-.4.4-.4.8c-.1.3-.1.5.1.7.1.2.3.4.5.6.3.1.6.2.8.2.3.1.5.1.7.1.1.1.1.1.1.3 0 .1 0 .2-.1.3-.1.1-.3.2-.4.4-.2.1-.4.4-.7.7-.1.3-.2.4-.1.7.1.3.1.4.3.7.2.2.4.3.7.4.3.1.4.2.6.3.1.1.1.1.1.3 0 .1-.1.2-.1.3-.1.1-.3.1-.6.3-.3.1-.6.3-.7.4-.2.2-.3.4-.3.7-.1.3 0 .4.1.7s.4.4.7.7c.2.1.4.3.4.4.1.1.1.2.1.3 0 .1-.1.1-.1.3-.1.1-.3.1-.7.1-.3.1-.6.1-.8.2-.3.1-.4.3-.5.6-.1.2-.1.4-.1.7.1.3.3.5.4.8.1.2.4.4.4.5 0 .1 0 .2-.1.3l-.2.2c-.1.1-.4 0-.7-.1s-.7-.1-.9 0c-.3.1-.4.2-.7.4-.1.2-.2.4-.2.7 0 .3.1.6.3.8.1.3.3.5.3.7 0 .1-.1.2-.1.3-.1.1-.1.1-.3.1-.1 0-.3-.1-.7-.3-.3-.1-.6-.3-.8-.3-.2 0-.5.1-.7.2-.2.1-.3.4-.4.7-.1.3-.1.6 0 .9.1.3.1.5.1.7l-.2.2c-.1.1-.2.1-.3.1-.1 0-.3-.2-.5-.4s-.4-.4-.8-.4c-.3-.1-.5-.1-.7.1-.2.1-.4.3-.6.5-.1.2-.2.6-.2.8-.1.3-.1.5-.1.7-.1.1-.1.1-.3.1s-.2 0-.3-.1c-.1-.1-.2-.3-.4-.4-.1-.2-.4-.4-.7-.7-.3-.1-.4-.2-.7-.1-.3.1-.4.1-.7.3-.2.2-.3.4-.4.7-.2.5-.3.7-.3.7"/><path fill="#FFF" d="M-327.4 602.1c-.1-.1-.1-.1-.1-.3-.1-.1-.1-.2-.1-.3s0-.2.1-.3v-.2c0-.1.1-.1.1-.1.1-.1.2-.3.4-.4 0 0 .1 0 .1-.1h.2c.1 0 .1-.1.1-.1.1-.1.1-.1.2-.1.1-.1.2-.1.3-.1h.3c.1 0 .4 0 .5.1.1 0 .1.1.3.1H-324.7c.2 0 .4-.1.5-.1.1 0 .1-.1.1-.1.1-.1.2-.1.3-.2.1-.1.2-.1.3-.3.1-.1.1-.2 0-.2s-.2 0-.4.1h-.1c-.1 0-.3.1-.4.1-.1 0-.4.1-.5.1h-.3c-.1 0-.2-.1-.3-.1-.1-.1-.1-.1-.2-.3l-.1-.1-.1-.1c-.1-.1-.1-.3-.1-.4-.1-.1-.1-.3-.2-.4-.1-.1-.1-.3-.3-.3-.1-.1-.2-.1-.3-.1-.1 0-.3 0-.4.1h-.1-.1l-.1.1-.1.1c-.1.1-.1.3-.1.4 0 .1 0 .1.1.2l.1.1c.1.1.2.1.3.1.1 0 .3-.1.4-.1.1-.1.1-.2.2-.3 0-.1.1-.1.1-.1.1 0 .1.1.1.1 0 .1-.1.1-.1.3-.1.1-.1.1-.1.2-.1.1-.3.1-.5.2-.1 0-.2 0-.3-.1-.1-.1-.1-.1-.3-.1l-.1-.1v-.1-.2c-.1-.1-.1-.1-.1-.3-.1-.1 0-.4.1-.5.1-.1.1-.1.1-.2l.1-.1.1-.1s.1 0 .1-.1c.1-.1.4-.1.5-.1.2 0 .4.1.5.1s.3.3.4.4c.1.1.1.3.3.4.1.1.1.3.2.4l.1.1c0 .1.1.1.1.1.1 0 .1.1.1.1l.1.1c.1 0 .3 0 .4-.1.1-.1.1-.1.2-.1l.3-.3c-.3-.4-.3-1-.1-1.5-.1-.1-.2-.3-.3-.4-.1-.1-.2-.4-.3-.5-.1-.1-.1-.2-.1-.3v-.4c0-.1 0-.1.1-.1v-.1l.1-.1c.1-.1.1-.1.1-.2.1-.1.1-.3.1-.4v-.1s0-.1-.1-.1c0-.1-.1-.1-.1-.1-.1-.1-.4-.3-.6-.3-.2 0-.4.1-.5.3 0 0 0 .1-.1.1V594.6s.1.2.1.3c.1.1.2.1.3.1s.3-.1.4-.1h.1c.1.1.1.1 0 .1-.1.1-.1.1-.2.1-.1.1-.1.1-.3.1-.1 0-.4 0-.5-.1l-.2-.2c-.1-.1-.1-.2-.1-.3v-.5c0-.1 0-.1.1-.1.1-.1.1-.3.4-.4.1-.1.4-.1.5-.1s.4.1.5.1c.1.1.3.2.4.3 0 .1.1.1.1.1l.1.1c.1.1.1.2.1.3 0 .2-.1.4-.1.6 0 .1-.1.1-.1.3v.2c0 .1.1.2.1.3.1.1.1.2.3.3.1.1.1.1.3.2.7-.4 1.5-.3 2.1.2.1-.1.2-.1.3-.3.1-.1.1-.1.1-.3.1-.1.1-.1.1-.3.1-.1.1-.1.1-.3 0-.1-.1-.1-.1-.2s-.1-.1-.1-.1l-.1-.1c-.1-.1-.1-.1-.3-.2-.1-.1-.3-.3-.5-.4-.1-.1-.2-.1-.3-.3-.1-.1-.1-.1-.1-.2s-.1-.1-.1-.1v-.2c0-.1 0-.3.1-.4 0-.1.1-.1.1-.2s.1-.1.1-.1 0-.1.1-.1l.1-.1.1-.1.1-.1.1-.1c.1-.1.3-.1.4-.1s.3.1.4.1l.1.1.1.1c.1.1.1.2.2.4 0 .1 0 .3-.1.4-.1.1-.1.2-.3.3-.1.1-.2.1-.4.1-.1 0-.1-.1-.1-.1l.1-.1c.1 0 .1-.1.3-.1.1-.1.1-.1.1-.3.1-.1.1-.2.1-.3s-.1-.1-.1-.2l-.1-.1-.1-.1c-.1-.1-.1-.1-.3-.1-.1 0-.1.1-.3.1-.1 0-.1.1-.1.1l-.1.1v.2s0 .1-.1.1c0 .1-.1.1-.1.1s-.1.1 0 .3v.1c0 .1.1.1.1.1.1.1.1.1.3.2.2.1.4.3.6.4.1.1.2.1.3.2l.1.1.1.1.1.1c.1.1.1.3.1.4v.4c0 .1-.1.3-.1.4-.1.1-.1.3-.1.4-.1.1-.1.2-.1.3 0 .1-.3.7.3.2l.1-.1.4-.4c.1-.1.2-.3.3-.5 0-.1.1-.1.1-.1l.1-.1-.1-.3.1-.3c0-.1.1-.2.1-.3.1-.1.1-.3.1-.3l.1-.1.1-.1c.1-.1.2-.1.3-.1.1 0 .1-.1.1-.1.1 0 .1-.1.1-.1h.2c.1 0 .1.1.2.1.1.1.2.1.3.3.1.1.1.2.2.4 0 .1.1.1.1.2v.2c0 .1-.1.3-.1.4-.1.1-.2.1-.4.2-.1.1-.3.1-.4 0-.1 0-.3-.1-.4-.1-.1-.1-.1-.1 0-.1.1-.1.1-.1.1 0 .1.1.1.1.3.1h.3c.1-.1.2-.1.3-.1.1-.1.1-.1.1-.3v-.1c0-.1 0-.1-.1-.1-.1-.1-.1-.2-.1-.3-.1-.1-.1-.1-.3-.1-.1 0-.1-.1-.1-.1h-.2c-.1 0-.1 0-.1.1-.1 0-.1.1-.1.1-.1.1-.1.1-.3.1l-.1.1-.1.1c-.1.1-.1.1-.1.3-.1.2-.1.4-.1.7V596.5c-.1.3-.1.5-.2.7-.1.2-.2.4-.4.7s-.3.4-.4.6l-.1.1c.1-.1.3-.1.4-.2.1-.1.3-.1.4-.1.1-.1.3-.1.4-.1s.3 0 .5.1c.1.1.1.1.2.1.1.1.1.1.1.2 0 0 0 .1.1.1l.1.1.1.1.1.3.3.6c.1.1.1.1.1.2s.1.1.1.1h.5c.1 0 .1 0 .1-.1H-316.8l.1-.1.1-.1c.1-.1.1-.1.1-.3v-.3c0-.1-.1-.1-.1-.1l-.1-.1c-.1-.1-.1-.1-.2-.1-.1-.1-.2-.1-.3 0-.1 0-.2.1-.3.1-.1.1-.1.1-.1.2 0 0 0 .1-.1.1-.1.1-.1.1-.1 0-.1-.1-.1-.1 0-.1.1-.1.1-.2.2-.3.1-.1.2-.1.3-.2.1-.1.3-.1.4 0 .1.1.3.1.3.2l.1.1.1.1c.1.1.1.3.1.4 0 .1-.1.3-.1.4l-.1.1-.1.1s-.1 0-.1.1H-317c-.1 0-.1.1-.1.1-.1 0-.1.1-.1.1-.1.1-.3.1-.4 0h-.1s-.1 0-.1-.1l-.1-.1c-.1-.1-.2-.1-.3-.3-.1-.1-.1-.1-.2-.3l-.2-.3-.2-.3.1-.1-.1-.1-.1-.1-.1-.1c-.1 0-.1 0-.1.1-.1.1-.3.1-.4.3l-.4.4-.1.1.4.4.3.3c.1.1.1.3.2.4.1.1.1.4.1.5 0 .1-.1.1-.1.3v.2l-.1.1-.3.6c-.1.2-.1.4-.1.6v.4c0 .1.1.1.1.1.1.1.3.2.5.3h.2c.1 0 .1 0 .1-.1.1-.1.1-.1.2-.1.1-.1.1-.1.1-.2v-.4-.1c0-.1 0-.1-.1-.2s-.1-.1-.2-.1c-.1-.1-.1-.1-.3-.1-.1 0-.1 0-.3.1-.1.1-.1 0-.1-.1-.1-.1 0-.1.1-.1h.1c.1-.1.2-.1.4-.1.1 0 .3 0 .4.1.1.1.2.1.3.2.1.1.1.3.1.4 0 .1 0 .1-.1.2 0 .1 0 .1-.1.1v.2c-.1.1-.1.2-.2.3-.1.1-.2.1-.3.2-.1 0-.1.1-.1.1h-.2-.1c-.1 0-.1-.1-.1-.1l-.1-.1c-.1-.1-.2-.1-.3-.2l-.1-.1s0-.1-.1-.1c0 0 0-.1-.1-.1 0-.1-.1-.1-.1-.1-.1-.1-.1-.3-.1-.4v-.4s.1-.3.1-.4c.1-.2.4-1.2-.1-1.3-.1 0-1.2-.3-2.6 1-.4.4.3 1 .3 1 .1.1.3.3.4.5.1.1.1.2.2.3.1.1.1.1.1.2V604c0 .1-.1.3-.1.4l-.1.1-.1.1-.1.1-.1.1-.1.1s-.1 0-.1.1c-.1 0-.1.1-.1.1-.1.1-.1.1-.2.1-.1.1-.3.1-.4 0-.1-.1-.3-.1-.4-.1l-.1-.1-.1-.1c-.1-.1-.1-.3-.1-.4 0-.1.1-.3.1-.4.1-.1.1-.2.3-.3.1-.1.3-.1.4-.1.1 0 .1 0 .1.1.1.1.1.1 0 .1-.1.1-.1.1-.1 0-.1 0-.1 0-.3.1s-.1.1-.2.2-.1.1-.1.3c0 .1 0 .1.1.3 0 .1.1.1.1.1l.1.1c.1.1.1.1.3.1.1 0 .2 0 .3-.1.1 0 .1-.1.1-.1l.1-.1h.1v-.1l.1-.1.1-.1c.1-.1.1-.1.1-.3v-.5c0-.1 0-.1-.1-.1l-.2-.2c-.1-.1-.3-.3-.5-.4l-.3-.2-.1-.1-.1-.1-.1-.1c-.1-.1-.1-.1-.1-.2-.1-.1-.1-.1-.1-.3-.1-.1 0-.3 0-.4.1-.3.1-.5.3-.7.1-.1.1-.2.1-.3 0 0-1 .4-1.4.5h-.1c-.2.1-.4.1-.6 0H-325.7c-.1 0-.1-.1-.2-.1-.1-.1-.3-.1-.4-.1h-.2s-.1 0-.1.1c-.1 0-.1.1-.2.1s-.1.1-.1.1h-.1c-.1.1-.2.1-.3.3 0 .1-.1.1-.1.1v.1c0 .1 0 .1-.1.2.1-.1.1.1.1.2.1.1.2.1.3.1.1.1.3.1.4.1.1 0 .2-.1.3-.1.1-.2.1-.5 0-.7-.1-.1-.1-.1 0-.1.1-.1.1-.1.1 0 .1.1.2.3.2.4 0 .1 0 .4-.1.5l-.2.2c-.1.1-.1.1-.3.1-.2.1-.4 0-.5-.1.2-.2 0-.2-.2-.4"/><path fill="#C1D82F" d="M-315 591.2c-1.9-1.9-4.5-3-7.3-3s-5.4 1.1-7.3 3c-1.9 1.9-3 4.5-3 7.3s1.1 5.4 3 7.3c1.9 1.9 4.5 3 7.3 3s5.4-1.1 7.3-3c4-4 4-10.6 0-14.6m-.3 14.4c-1 1-2.1 1.7-3.3 2.2-1.2.4-2.5.7-3.7.7-1.3 0-2.6-.3-3.7-.7-1.2-.5-2.3-1.2-3.3-2.2-3.9-3.9-3.9-10.2-.1-14.2 1-1 2.1-1.7 3.3-2.2 1.2-.4 2.5-.7 3.7-.7 1.2 0 2.6.3 3.7.7 1.2.5 2.3 1.2 3.3 2.2 1 1 1.7 2.1 2.2 3.3.4 1.2.7 2.5.7 3.7 0 1.2-.3 2.6-.7 3.7-.4 1.4-1.2 2.6-2.1 3.5"/><path fill="#C1D82F" d="M-317 593.1c-1.4-1.4-3.4-2.2-5.3-2.2-2 0-3.9.8-5.3 2.2-1.4 1.4-2.2 3.4-2.2 5.3 0 2 .8 3.9 2.2 5.3 1.4 1.4 3.4 2.2 5.3 2.2s3.9-.8 5.3-2.2c1.4-1.4 2.2-3.4 2.2-5.3s-.8-3.8-2.2-5.3m-.3 10.5c-1.4 1.4-3.2 2.1-5 2.1-1.9 0-3.7-.7-5-2.1-1.4-1.4-2.1-3.2-2.1-5 0-1.9.7-3.7 2.1-5 1.4-1.4 3.2-2.1 5-2.1 1.9 0 3.7.7 5 2.1 1.4 1.4 2.1 3.2 2.1 5 0 1.8-.7 3.7-2.1 5"/><path fill="#FFF" d="M-329.3 604.8c-.1-.1-.1-.1-.2-.3l.9-.7.2.2-.9.8zm.7.6l.8-.8.2.2-.7.9c-.2-.1-.2-.1-.3-.3m-1.5-1.7c-.1-.1-.1-.2-.1-.3l1-.7c.1.1.1.1.1.3l-1 .7zm2.6 2.6l.7-1c.1.1.1.1.3.1l-.7 1c-.2 0-.2 0-.3-.1m-3.3-3.7c-.1-.1-.1-.2-.1-.3l1-.4c.1.1.1.1.1.3l-1 .4zm4.4 4.3l.4-1c.1.1.1.1.3.1l-.4 1s-.2 0-.3-.1m-4.9-5.6c-.1-.1-.1-.2-.1-.3l1.1-.3c.1.1.1.2.1.3l-1.1.3zm6.2 6.1l.4-1.1c.1.1.2.1.3.1l-.3 1.1c-.2 0-.3 0-.4-.1m-6.5-7.4c0-.1-.1-.2-.1-.3l1.2-.1c0 .1.1.2.1.3l-1.2.1zm7.8 7.7l.1-1.2c.1 0 .2.1.3.1l-.1 1.2c-.1-.1-.2-.1-.3-.1m-7.9-9v-.3h1.2v.3h-1.2zm9.2 9.1v-1.2h.3v1.2h-.3m-9.1-10.4c0-.1.1-.2.1-.3l1.2.1c0 .1-.1.2-.1.3l-1.2-.1zm10.4 10.3l-.1-1.2c.1 0 .2 0 .3-.1l.2 1.2c-.2.1-.3.1-.4.1m-10.2-11.6c.1-.1.1-.2.1-.3l1.1.4c-.1.1-.1.2-.1.3l-1.1-.4zm11.5 11.4l-.3-1.2c.1 0 .2-.1.3-.1l.4 1.1c-.2.2-.3.2-.4.2m-11-12.7c.1-.1.1-.2.1-.3l1 .5c-.1.1-.1.1-.1.3l-1-.5zm12.3 12.2l-.4-1c.1-.1.1-.1.3-.1l.5 1c-.2.1-.3.1-.4.1m-11.7-13.4c.1-.1.1-.2.1-.3l1 .7c-.1.1-.1.1-.1.3l-1-.7zm12.9 12.8l-.7-1c.1-.1.1-.1.3-.1l.7 1c-.1 0-.2.1-.3.1m-12.2-13.9c.1-.1.1-.1.2-.3l.8.8-.2.2-.3-.3-.5-.4zm13.3 13.1l-.7-.9.2-.2.8.8c-.2.3-.3.3-.3.3m-11.5-13.2l-.8-.9c.1-.1.1-.1.3-.2l.7.9-.2.2m11.6 11.5c.1-.1.1-.1.1-.2l.9.7c-.1.1-.1.1-.2.3l-.8-.8zm-10.7-12.2l-.7-1c.1-.1.2-.1.3-.1l.7 1c-.1 0-.2.1-.3.1m11.4 11.3c.1-.1.1-.1.1-.3l1 .7c-.1.1-.1.2-.1.3l-1-.7zm-10.4-11.8l-.5-1c.1-.1.2-.1.3-.1l.4 1c0-.1-.1 0-.2.1M-315 602c.1-.1.1-.1.1-.3l1 .4c-.1.1-.1.2-.1.3l-1-.4zm-9.8-11.3l-.4-1.1c.1-.1.2-.1.3-.1l.3 1.1s-.1 0-.2.1m11.4 10.2c-.1.1-.1.2-.1.3l-1.1-.3c.1-.1.1-.2.1-.3l1.1.3m-10.3-10.5l-.2-1.2c.1 0 .2-.1.3-.1l.1 1.2c0 .1-.1.1-.2.1m9.4 9.4c0-.1.1-.2.1-.3l1.2.1c0 .1-.1.2-.1.3l-1.2-.1zm-8.2-9.5v-1.2h.3v1.2h-.3m8.3 8.3v-.3h1.2v.3h-1.2zm-7.1-8.2l.1-1.2c.1 0 .2.1.3.1l-.1 1.2c-.2-.1-.2-.1-.3-.1m7.1 7.1c0-.1 0-.2-.1-.3l1.2-.2c0 .1.1.2.1.3l-1.2.2zm-6-6.9l.3-1.1c.1.1.2.1.3.1l-.4 1.1c0-.1-.1-.1-.2-.1m5.8 5.7c0-.1-.1-.2-.1-.3l1.1-.4c.1.1.1.2.1.3l-1.1.4zm-4.7-5.3l.4-1c.1.1.2.1.3.1l-.4 1c-.1 0-.2-.1-.3-.1m4.2 4.2c-.1-.1-.1-.1-.1-.3l1-.5c.1.1.1.2.1.3l-1 .5zm-3.1-3.7l.7-1c.1.1.2.1.3.1l-.7 1c-.2.1-.3 0-.3-.1m2.6 2.7c-.1-.1-.1-.1-.1-.3l1-.7c.1.1.1.2.1.3l-1 .7zm-1.8-1.9l.4-.4.4-.4c.1.1.1.1.3.2l-.8.8c0-.2-.1-.2-.3-.2m1.1 1l-.2-.2.8-.8c.1.1.1.1.2.3l-.8.7z"/><path fill="#C1D82F" d="M-323 610.2c0-.4.3-.7.7-.7s.7.3.7.7-.3.7-.7.7-.7-.4-.7-.7m-8-3c-.3-.3-.3-.7 0-1 .3-.3.7-.3 1 0 .3.3.3.7 0 1-.1.1-.3.2-.4.2-.3.1-.6 0-.6-.2m16.4 0c-.3-.3-.3-.7 0-1 .3-.3.7-.3 1 0 .3.3.3.7 0 1-.1.1-.3.2-.4.2-.3.1-.4 0-.6-.2m3.2-8.7c0-.4.3-.7.7-.7.4 0 .7.3.7.7 0 .4-.3.7-.7.7-.4 0-.7-.3-.7-.7m-22.6.7c-.4 0-.7-.3-.7-.7s.3-.7.7-.7.7.3.7.7-.3.7-.7.7zm19.4-8.4c-.3-.3-.3-.7 0-1 .3-.3.7-.3 1 0 .3.3.3.7 0 1-.1.1-.3.2-.4.2-.3-.1-.4-.1-.6-.2m-16.4 0c-.3-.3-.3-.7 0-1 .3-.3.7-.3 1 0 .3.3.3.7 0 1-.1.1-.3.2-.4.2-.3-.1-.6-.1-.6-.2m8-4c0-.4.3-.7.7-.7s.7.3.7.7-.3.7-.7.7c-.4.1-.7-.2-.7-.7"/><path d="M-302.8 604.8l-4.7 8.1h9.4l-4.7-8.1zm0 1.5l3.4 5.9h-6.9l3.5-5.9zM-341.9 604.8l-4.7 8.1h9.4l-4.7-8.1zm0 1.5l3.4 5.9h-6.9l3.5-5.9zM-322.3 570.8l-4.7 8.1h9.4l-4.7-8.1zm0 1.5l3.4 5.9h-6.9l3.5-5.9zM-155.2 599.6h-.8v-.2h2v.2h-.8v2.5h-.4M-151.1 600.9v-1.2c-.1.4-.2.7-.4 1l-.4 1.4h-.2l-.4-1.3c-.1-.4-.2-.7-.4-1v1.3l-.1 1.2h-.4l.2-2.8h.4l.4 1.4c.1.4.2.7.2 1 .1-.2.1-.6.4-1l.4-1.4h.4l.1 2.8h-.4v-1.4z"/></svg>